<?xml version="1.0" standalone="no"?>
<!DOCTYPE svg PUBLIC "-//W3C//DTD SVG 20010904//EN"
 "http://www.w3.org/TR/2001/REC-SVG-20010904/DTD/svg10.dtd">
<svg version="1.0" xmlns="http://www.w3.org/2000/svg"
 width="512.000000pt" height="512.000000pt" viewBox="0 0 512.000000 512.000000"
 preserveAspectRatio="xMidYMid meet">

<g transform="translate(0.000000,512.000000) scale(0.100000,-0.100000)"
fill="#000000" stroke="none">
<path d="M2150 3793 c-558 -40 -1329 -192 -1424 -279 -53 -50 -69 -123 -42
-189 8 -19 96 -138 196 -265 114 -146 178 -235 173 -243 -4 -6 -91 -124 -194
-262 -102 -137 -193 -264 -202 -282 -35 -67 -13 -163 47 -207 17 -12 227 -105
466 -205 239 -101 615 -259 835 -351 250 -105 429 -174 478 -185 72 -16 82
-16 155 0 86 19 101 25 567 222 182 77 521 220 755 318 234 98 437 187 453
198 60 41 85 144 50 210 -9 18 -100 145 -202 282 -103 138 -190 256 -194 262
-5 9 56 94 173 243 184 234 210 275 210 332 0 45 -34 109 -73 135 -118 81
-874 224 -1386 263 -121 9 -727 11 -841 3z m670 -272 c0 -5 -9 -31 -21 -58
-16 -37 -121 -314 -226 -593 -7 -19 -5 -22 -87 200 -35 96 -87 234 -116 305
-29 72 -54 136 -57 143 -4 9 50 12 251 12 149 0 256 -4 256 -9z m-950 -54 c0
-41 -201 -809 -210 -805 -4 2 -155 148 -334 325 l-327 321 58 12 c32 7 225 48
428 90 204 43 373 78 378 79 4 1 7 -10 7 -22z m1785 -62 c204 -42 392 -81 418
-87 l48 -10 -327 -321 c-180 -177 -330 -323 -334 -325 -4 -1 -32 95 -63 215
-167 641 -162 619 -129 609 9 -3 184 -39 387 -81z m-1491 -312 c186 -516 271
-739 285 -750 9 -9 49 -13 111 -13 62 0 102 4 112 13 13 11 77 174 181 467 77
215 162 440 167 440 4 0 121 -465 228 -901 5 -22 -632 -797 -663 -805 -56 -14
-62 -9 -393 395 -192 235 -322 401 -320 410 74 306 225 901 229 901 4 0 32
-71 63 -157z m-458 -1036 c108 -142 194 -260 192 -262 -7 -7 -923 463 -923
473 0 6 67 90 148 186 l149 176 119 -157 c65 -87 207 -274 315 -416z m2295
392 c79 -94 144 -175 144 -181 0 -10 -916 -480 -923 -473 -2 2 117 162 264
357 365 482 354 468 363 468 4 0 73 -77 152 -171z"/>
</g>
</svg>
