<?xml version="1.0" encoding="utf-8"?>
<!-- Generator: Adobe Illustrator 29.8.2, SVG Export Plug-In . SVG Version: 9.03 Build 0)  -->
<svg version="1.0" id="katman_1" xmlns="http://www.w3.org/2000/svg" xmlns:xlink="http://www.w3.org/1999/xlink" x="0px" y="0px"
	 viewBox="0 0 512 512" style="enable-background:new 0 0 512 512;" xml:space="preserve">
<g transform="translate(0.000000,512.000000) scale(0.100000,-0.100000)">
	<path d="M2059.02,4072.33c-681.93-48.88-1624.16-234.64-1740.26-340.96c-64.77-61.1-84.32-150.32-51.33-230.98
		c9.78-23.22,117.32-168.65,239.53-323.85c139.32-178.43,217.53-287.19,211.42-296.97c-4.89-7.33-111.21-151.54-237.09-320.19
		c-124.65-167.43-235.86-322.63-246.86-344.63c-42.77-81.88-15.89-199.2,57.44-252.97c20.78-14.67,277.41-128.32,569.49-250.53
		c292.08-123.43,751.59-316.52,1020.45-428.95c305.52-128.32,524.28-212.64,584.16-226.09c87.99-19.55,100.21-19.55,189.42,0
		c105.1,23.22,123.43,30.55,692.93,271.3c222.42,94.1,636.71,268.86,922.68,388.62s534.05,228.53,553.61,241.97
		c73.33,50.11,103.88,175.98,61.1,256.64c-11,22-122.21,177.2-246.86,344.63c-125.88,168.65-232.2,312.86-237.09,320.19
		c-6.11,11,68.44,114.88,211.42,296.97c224.86,285.97,256.64,336.08,256.64,405.73c0,54.99-41.55,133.21-89.21,164.98
		c-144.21,98.99-1068.11,273.75-1693.82,321.41C2938.93,4079.66,2198.34,4082.11,2059.02,4072.33z M2877.82,3739.92
		c0-6.11-11-37.88-25.66-70.88c-19.55-45.22-147.87-383.74-276.19-724.7c-8.55-23.22-6.11-26.89-106.32,244.42
		c-42.77,117.32-106.32,285.97-141.76,372.74c-35.44,87.99-65.99,166.2-69.66,174.76c-4.89,11,61.1,14.67,306.74,14.67
		C2747.06,3750.92,2877.82,3746.03,2877.82,3739.92z M1716.84,3673.93c0-50.11-245.64-988.67-256.64-983.78
		c-4.89,2.44-189.42,180.87-408.18,397.18L652.4,3479.62l70.88,14.67c39.11,8.55,274.97,58.66,523.05,109.99
		c249.31,52.55,455.84,95.32,461.95,96.55C1713.17,3702.04,1716.84,3688.59,1716.84,3673.93z M3898.27,3598.16
		c249.31-51.33,479.06-98.99,510.83-106.32l58.66-12.22l-399.62-392.29c-219.98-216.31-403.29-394.74-408.18-397.18
		c-4.89-1.22-39.11,116.1-76.99,262.75c-204.09,783.36-197.98,756.47-157.65,744.25
		C3436.32,3693.48,3650.18,3649.49,3898.27,3598.16z M2076.13,3216.87c227.31-630.6,331.19-903.13,348.3-916.57
		c11-11,59.88-15.89,135.65-15.89c75.77,0,124.65,4.89,136.87,15.89c15.89,13.44,94.1,212.64,221.2,570.72
		c94.1,262.75,197.98,537.72,204.09,537.72c4.89,0,147.87-568.27,278.64-1101.1c6.11-26.89-772.36-974.01-810.25-983.78
		c-68.44-17.11-75.77-11-480.28,482.73c-234.64,287.19-393.51,490.06-391.07,501.06c90.43,373.96,274.97,1101.1,279.86,1101.1
		C2004.03,3408.73,2038.25,3321.97,2076.13,3216.87z M1516.41,1950.78c131.99-173.54,237.09-317.74,234.64-320.19
		c-8.55-8.55-1127.99,565.83-1127.99,578.05c0,7.33,81.88,109.99,180.87,227.31l182.09,215.09l145.43-191.87
		C1210.89,2352.85,1384.43,2124.32,1516.41,1950.78z M4321.11,2429.84c96.54-114.88,175.98-213.87,175.98-221.2
		c0-12.22-1119.44-586.6-1127.99-578.05c-2.44,2.44,142.98,197.98,322.63,436.29c446.06,589.05,432.62,571.94,443.62,571.94
		C4140.24,2638.82,4224.57,2544.72,4321.11,2429.84z"/>
</g>
</svg>
